<?xml version="1.0" encoding="utf-8"?>
<!DOCTYPE svg PUBLIC "-//W3C//DTD SVG 20010904//EN" "http://www.w3.org/TR/2001/REC-SVG-20010904/DTD/svg10.dtd">
<svg version="1.0" xmlns="http://www.w3.org/2000/svg" width="256px" height="256px" viewBox="0 0 256 256" preserveAspectRatio="xMidYMid meet">
 <g fill="#e74c3c">
  <path d="M93 194.82 c-19.17 -33.40 -35.80 -62.22 -36.95 -64.07 -3.67 -5.90 -7.60 -14.43 -9.43 -20.50 -2.65 -8.68 -3.70 -15.77 -3.70 -25 -0.03 -6.35 0.38 -10.63 1.45 -16.25 5.03 -25.77 21.77 -47.83 45.38 -59.72 13.27 -6.70 27.08 -9.63 42.47 -8.98 26.70 1.13 52 15.55 66.85 38.13 7.53 11.45 11.93 23.52 13.57 37.33 0.52 4.30 0.57 13.95 0.13 18 -1.55 13.52 -5.32 24.48 -12.80 36.88 -1.58 2.63 -18.38 31.77 -37.35 64.82 -18.98 33.03 -34.55 60.05 -34.63 60.05 -0.08 0 -15.82 -27.30 -35 -60.67z m41 -77.97 c12.88 -2.22 23.40 -13 25.65 -26.20 0.55 -3.35 0.38 -9.57 -0.38 -12.65 -3.08 -12.40 -12.48 -21.48 -25.02 -24.17 -1.58 -0.32 -3.20 -0.45 -6.25 -0.45 -3.05 0 -4.68 0.13 -6.25 0.45 -12.55 2.70 -21.95 11.77 -25.02 24.17 -0.75 3.08 -0.93 9.30 -0.38 12.65 2.72 15.98 16.88 27.45 32.90 26.70 1.45 -0.08 3.58 -0.30 4.75 -0.50z"/>
 </g>
 <g fill="#c0392b">
  <path d="M123.63 138.25 c-10.20 -0.80 -19.80 -4.47 -28.15 -10.75 -2.67 -2 -8.18 -7.53 -10.15 -10.13 -7.43 -9.88 -11.07 -21.20 -10.75 -33.17 0.13 -4.57 0.20 -5.30 0.80 -8.77 0.08 -0.43 0.13 -1 0.15 -1.23 0 -0.25 0.10 -0.50 0.22 -0.57 0.13 -0.08 0.17 -0.30 0.10 -0.47 -0.08 -0.20 -0.03 -0.43 0.10 -0.50 0.15 -0.08 0.20 -0.38 0.13 -0.65 -0.08 -0.28 0 -0.50 0.15 -0.50 0.13 0 0.20 -0.15 0.13 -0.35 -0.08 -0.20 -0.03 -0.43 0.13 -0.50 0.15 -0.10 0.20 -0.32 0.10 -0.52 -0.08 -0.20 0 -0.38 0.15 -0.38 0.15 0 0.20 -0.17 0.13 -0.38 -0.10 -0.20 -0.03 -0.38 0.13 -0.38 0.15 0 0.20 -0.17 0.13 -0.38 -0.10 -0.20 -0.03 -0.38 0.13 -0.38 0.15 0 0.20 -0.17 0.13 -0.38 -0.10 -0.20 -0.03 -0.38 0.13 -0.38 0.15 0 0.20 -0.17 0.13 -0.38 -0.10 -0.20 -0.05 -0.38 0.08 -0.38 0.13 0 0.22 -0.25 0.25 -0.55 0.03 -0.28 0.15 -0.60 0.25 -0.68 0.10 -0.08 0.25 -0.38 0.28 -0.65 0.05 -0.28 0.20 -0.55 0.32 -0.57 0.13 -0.05 0.17 -0.20 0.08 -0.32 -0.08 -0.13 0 -0.22 0.15 -0.22 0.15 0 0.22 -0.10 0.15 -0.22 -0.20 -0.30 1.77 -4.28 2.10 -4.28 0.15 0 0.22 -0.10 0.15 -0.20 -0.08 -0.13 0.08 -0.45 0.35 -0.73 0.25 -0.30 0.40 -0.57 0.32 -0.68 -0.08 -0.08 0.05 -0.20 0.28 -0.30 0.22 -0.08 0.32 -0.25 0.25 -0.38 -0.08 -0.13 0 -0.22 0.15 -0.22 0.15 0 0.20 -0.13 0.13 -0.25 -0.08 -0.15 0.03 -0.32 0.22 -0.40 0.22 -0.08 0.35 -0.25 0.28 -0.35 -0.08 -0.10 0.05 -0.28 0.28 -0.35 0.20 -0.08 0.30 -0.25 0.22 -0.40 -0.08 -0.15 0.03 -0.32 0.22 -0.40 0.22 -0.08 0.35 -0.25 0.28 -0.35 -0.08 -0.13 0.13 -0.40 0.43 -0.60 0.30 -0.22 0.45 -0.40 0.32 -0.40 -0.15 -0.03 0 -0.22 0.30 -0.47 0.30 -0.25 0.50 -0.52 0.43 -0.60 -0.08 -0.08 0.15 -0.32 0.50 -0.55 0.35 -0.25 0.60 -0.52 0.52 -0.63 -0.08 -0.10 0.38 -0.65 1 -1.23 0.63 -0.57 1.10 -1.10 1.10 -1.17 -0.05 -0.22 2.10 -2.35 2.35 -2.35 0.10 0 0.50 -0.35 0.85 -0.77 0.82 -0.98 5.03 -4.15 7.55 -5.72 21 -13.02 48.15 -9.85 65.65 7.65 10.18 10.18 15.68 23.48 15.63 37.72 0 2.08 -0.08 4.32 -0.13 5 -0.28 2.50 -0.45 3.80 -0.77 5.50 -0.08 0.43 -0.15 0.93 -0.20 1.13 -0.03 0.22 -0.15 0.52 -0.25 0.70 -0.10 0.17 -0.13 0.40 -0.05 0.47 0.08 0.08 0.03 0.30 -0.10 0.47 -0.15 0.15 -0.25 0.40 -0.22 0.50 0.03 0.13 -0.08 0.55 -0.22 0.93 -0.17 0.40 -0.25 0.80 -0.17 0.93 0.08 0.13 0.03 0.28 -0.13 0.38 -0.15 0.10 -0.20 0.25 -0.13 0.38 0.08 0.13 0.03 0.28 -0.13 0.38 -0.15 0.10 -0.20 0.28 -0.13 0.40 0.10 0.13 0.03 0.22 -0.13 0.22 -0.17 0 -0.25 0.15 -0.17 0.35 0.08 0.20 0.05 0.40 -0.08 0.45 -0.13 0.05 -0.28 0.35 -0.35 0.70 -0.05 0.35 -0.13 0.68 -0.15 0.75 -0.05 0.08 -0.05 0.20 -0.03 0.32 0 0.10 -0.08 0.17 -0.22 0.17 -0.15 0 -0.22 0.08 -0.20 0.20 0.03 0.10 -0.08 0.43 -0.25 0.70 -0.15 0.30 -0.20 0.60 -0.13 0.70 0.08 0.08 0.03 0.15 -0.15 0.15 -0.17 0 -0.22 0.13 -0.15 0.25 0.08 0.15 0.03 0.25 -0.13 0.25 -0.15 0 -0.20 0.13 -0.13 0.25 0.08 0.15 0.05 0.25 -0.08 0.25 -0.25 0 -0.95 1.50 -0.85 1.83 0.03 0.10 -0.08 0.17 -0.22 0.17 -0.13 0 -0.17 0.13 -0.10 0.25 0.08 0.15 0.03 0.25 -0.15 0.25 -0.17 0 -0.25 0.08 -0.15 0.15 0.08 0.08 -0.08 0.38 -0.32 0.68 -0.28 0.28 -0.43 0.57 -0.38 0.68 0.08 0.13 -0.05 0.28 -0.28 0.35 -0.20 0.08 -0.30 0.25 -0.22 0.40 0.08 0.13 0.03 0.25 -0.13 0.25 -0.15 0 -0.22 0.10 -0.15 0.22 0.08 0.13 -0.03 0.30 -0.25 0.38 -0.20 0.08 -0.30 0.25 -0.22 0.40 0.08 0.13 0.03 0.25 -0.13 0.25 -0.15 0 -0.22 0.10 -0.15 0.22 0.08 0.13 -0.03 0.30 -0.25 0.38 -0.20 0.08 -0.32 0.25 -0.22 0.38 0.08 0.15 -0.10 0.38 -0.38 0.52 -0.28 0.15 -0.45 0.38 -0.38 0.50 0.08 0.13 -0.10 0.35 -0.38 0.50 -0.28 0.15 -0.45 0.38 -0.38 0.50 0.08 0.13 -0.10 0.35 -0.38 0.50 -0.28 0.15 -0.45 0.38 -0.40 0.47 0.08 0.10 -0.20 0.45 -0.60 0.75 -0.43 0.30 -0.73 0.63 -0.70 0.73 0.05 0.20 -5.15 5.45 -5.82 5.90 -0.22 0.15 -1.35 1 -2.50 1.88 -10.07 7.82 -23.45 11.80 -36.35 10.77z m10.38 -21.40 c12.88 -2.22 23.40 -13 25.65 -26.20 0.55 -3.35 0.38 -9.57 -0.38 -12.65 -3.08 -12.40 -12.48 -21.48 -25.02 -24.17 -1.58 -0.32 -3.20 -0.45 -6.25 -0.45 -3.05 0 -4.68 0.13 -6.25 0.45 -12.55 2.70 -21.95 11.77 -25.02 24.17 -0.75 3.08 -0.93 9.30 -0.38 12.65 2.72 15.98 16.88 27.45 32.90 26.70 1.45 -0.08 3.58 -0.30 4.75 -0.50z"/>
 </g>
</svg>